<mxfile host="app.diagrams.net" agent="Mozilla/5.0 (Windows NT 10.0; Win64; x64) AppleWebKit/537.36 (KHTML, like Gecko) Chrome/129.0.0.0 Safari/537.36" version="24.7.17" pages="5">
  <diagram name="DFD" id="xv1BBhmm1pDPJM2Q9MrK">
    <mxGraphModel grid="1" page="1" gridSize="10" guides="1" tooltips="1" connect="1" arrows="1" fold="1" pageScale="1" pageWidth="827" pageHeight="1169" math="0" shadow="0">
      <root>
        <mxCell id="0" />
        <mxCell id="1" parent="0" />
        <mxCell id="Yx4M3br5tasr4qP-P989-3" value="Pendaftaran Online" style="ellipse;whiteSpace=wrap;html=1;aspect=fixed;" vertex="1" parent="1">
          <mxGeometry x="300" y="85" width="110" height="110" as="geometry" />
        </mxCell>
        <mxCell id="Yx4M3br5tasr4qP-P989-6" value="" style="endArrow=classic;html=1;rounded=0;" edge="1" parent="1">
          <mxGeometry width="50" height="50" relative="1" as="geometry">
            <mxPoint x="165" y="139.63" as="sourcePoint" />
            <mxPoint x="295" y="139.63" as="targetPoint" />
          </mxGeometry>
        </mxCell>
        <mxCell id="Yx4M3br5tasr4qP-P989-7" value="Data siswa" style="text;html=1;align=center;verticalAlign=middle;resizable=0;points=[];autosize=1;strokeColor=none;fillColor=none;rotation=0;" vertex="1" parent="1">
          <mxGeometry x="190" y="110" width="80" height="30" as="geometry" />
        </mxCell>
        <mxCell id="UNekgtml4kyOxIxgV8N4-1" value="Pembayaran" style="ellipse;whiteSpace=wrap;html=1;aspect=fixed;" vertex="1" parent="1">
          <mxGeometry x="304" y="460" width="110" height="110" as="geometry" />
        </mxCell>
        <mxCell id="UNekgtml4kyOxIxgV8N4-2" value="Siswa" style="rounded=0;whiteSpace=wrap;html=1;" vertex="1" parent="1">
          <mxGeometry x="40" y="110" width="120" height="60" as="geometry" />
        </mxCell>
        <mxCell id="UNekgtml4kyOxIxgV8N4-3" value="Admin" style="rounded=0;whiteSpace=wrap;html=1;" vertex="1" parent="1">
          <mxGeometry x="560" y="487.5" width="120" height="60" as="geometry" />
        </mxCell>
        <mxCell id="UNekgtml4kyOxIxgV8N4-4" value="" style="endArrow=classic;html=1;rounded=0;" edge="1" parent="1">
          <mxGeometry width="50" height="50" relative="1" as="geometry">
            <mxPoint x="290" y="150" as="sourcePoint" />
            <mxPoint x="170" y="150" as="targetPoint" />
          </mxGeometry>
        </mxCell>
        <mxCell id="UNekgtml4kyOxIxgV8N4-6" value="Formulir" style="text;html=1;align=center;verticalAlign=middle;whiteSpace=wrap;rounded=0;" vertex="1" parent="1">
          <mxGeometry x="200" y="150" width="60" height="30" as="geometry" />
        </mxCell>
        <mxCell id="UNekgtml4kyOxIxgV8N4-7" value="" style="endArrow=classic;html=1;rounded=0;" edge="1" parent="1">
          <mxGeometry width="50" height="50" relative="1" as="geometry">
            <mxPoint x="354.62" y="200" as="sourcePoint" />
            <mxPoint x="354.62" y="240" as="targetPoint" />
          </mxGeometry>
        </mxCell>
        <mxCell id="UNekgtml4kyOxIxgV8N4-9" value="" style="endArrow=classic;html=1;rounded=0;" edge="1" parent="1">
          <mxGeometry width="50" height="50" relative="1" as="geometry">
            <mxPoint x="430" y="512.5" as="sourcePoint" />
            <mxPoint x="550" y="512.5" as="targetPoint" />
          </mxGeometry>
        </mxCell>
        <mxCell id="UNekgtml4kyOxIxgV8N4-10" value="" style="endArrow=classic;html=1;rounded=0;" edge="1" parent="1">
          <mxGeometry width="50" height="50" relative="1" as="geometry">
            <mxPoint x="550" y="522.5" as="sourcePoint" />
            <mxPoint x="430" y="522.5" as="targetPoint" />
          </mxGeometry>
        </mxCell>
        <mxCell id="UNekgtml4kyOxIxgV8N4-11" value="Data Pembayaran" style="text;html=1;align=center;verticalAlign=middle;whiteSpace=wrap;rounded=0;" vertex="1" parent="1">
          <mxGeometry x="440" y="517.5" width="100" height="30" as="geometry" />
        </mxCell>
        <mxCell id="UNekgtml4kyOxIxgV8N4-12" value="Lap Pembayaran" style="text;html=1;align=center;verticalAlign=middle;whiteSpace=wrap;rounded=0;" vertex="1" parent="1">
          <mxGeometry x="435" y="482.5" width="110" height="30" as="geometry" />
        </mxCell>
        <mxCell id="UNekgtml4kyOxIxgV8N4-14" value="" style="endArrow=classic;html=1;rounded=0;exitX=0.5;exitY=1;exitDx=0;exitDy=0;entryX=0.016;entryY=0.572;entryDx=0;entryDy=0;entryPerimeter=0;" edge="1" parent="1" source="UNekgtml4kyOxIxgV8N4-2" target="UNekgtml4kyOxIxgV8N4-1">
          <mxGeometry width="50" height="50" relative="1" as="geometry">
            <mxPoint x="150" y="290" as="sourcePoint" />
            <mxPoint x="260" y="300" as="targetPoint" />
            <Array as="points">
              <mxPoint x="100" y="523" />
            </Array>
          </mxGeometry>
        </mxCell>
        <mxCell id="UNekgtml4kyOxIxgV8N4-15" value="" style="endArrow=classic;html=1;rounded=0;entryX=0.25;entryY=1;entryDx=0;entryDy=0;exitX=0.08;exitY=0.793;exitDx=0;exitDy=0;exitPerimeter=0;" edge="1" parent="1" source="UNekgtml4kyOxIxgV8N4-1" target="UNekgtml4kyOxIxgV8N4-2">
          <mxGeometry width="50" height="50" relative="1" as="geometry">
            <mxPoint x="280" y="350" as="sourcePoint" />
            <mxPoint x="190" y="260" as="targetPoint" />
            <Array as="points">
              <mxPoint x="70" y="550" />
            </Array>
          </mxGeometry>
        </mxCell>
        <mxCell id="UNekgtml4kyOxIxgV8N4-16" value="Formulir/ Lap Pembayaran" style="text;html=1;align=center;verticalAlign=middle;whiteSpace=wrap;rounded=0;" vertex="1" parent="1">
          <mxGeometry x="90" y="500" width="200" height="30" as="geometry" />
        </mxCell>
        <mxCell id="UNekgtml4kyOxIxgV8N4-17" value="Kwitansi" style="text;html=1;align=center;verticalAlign=middle;whiteSpace=wrap;rounded=0;" vertex="1" parent="1">
          <mxGeometry x="160" y="550" width="60" height="30" as="geometry" />
        </mxCell>
        <mxCell id="UNekgtml4kyOxIxgV8N4-18" value="Data siswa" style="text;html=1;align=center;verticalAlign=middle;whiteSpace=wrap;rounded=0;" vertex="1" parent="1">
          <mxGeometry x="280" y="200" width="70" height="30" as="geometry" />
        </mxCell>
        <mxCell id="GrwJYSLe0EC1OyHtpW1D-2" value="Test Seleksi" style="ellipse;whiteSpace=wrap;html=1;aspect=fixed;" vertex="1" parent="1">
          <mxGeometry x="300" y="256" width="114" height="114" as="geometry" />
        </mxCell>
        <mxCell id="GrwJYSLe0EC1OyHtpW1D-3" value="" style="endArrow=classic;html=1;rounded=0;entryX=0;entryY=0.5;entryDx=0;entryDy=0;exitX=0.75;exitY=1;exitDx=0;exitDy=0;" edge="1" parent="1" source="UNekgtml4kyOxIxgV8N4-2" target="GrwJYSLe0EC1OyHtpW1D-2">
          <mxGeometry width="50" height="50" relative="1" as="geometry">
            <mxPoint x="200" y="380" as="sourcePoint" />
            <mxPoint x="250" y="330" as="targetPoint" />
            <Array as="points">
              <mxPoint x="130" y="313" />
            </Array>
          </mxGeometry>
        </mxCell>
        <mxCell id="GrwJYSLe0EC1OyHtpW1D-4" value="" style="endArrow=classic;html=1;rounded=0;entryX=0.642;entryY=0.967;entryDx=0;entryDy=0;entryPerimeter=0;exitX=0.042;exitY=0.651;exitDx=0;exitDy=0;exitPerimeter=0;" edge="1" parent="1">
          <mxGeometry width="50" height="50" relative="1" as="geometry">
            <mxPoint x="299.99799999999993" y="332.19399999999996" as="sourcePoint" />
            <mxPoint x="112.25000000000001" y="169.99999999999997" as="targetPoint" />
            <Array as="points">
              <mxPoint x="115.21" y="331.98" />
            </Array>
          </mxGeometry>
        </mxCell>
        <mxCell id="GrwJYSLe0EC1OyHtpW1D-5" value="Nilai Hasil test" style="text;html=1;align=center;verticalAlign=middle;whiteSpace=wrap;rounded=0;" vertex="1" parent="1">
          <mxGeometry x="140" y="330" width="100" height="30" as="geometry" />
        </mxCell>
        <mxCell id="GrwJYSLe0EC1OyHtpW1D-7" value="Formulir Test" style="text;html=1;align=center;verticalAlign=middle;whiteSpace=wrap;rounded=0;" vertex="1" parent="1">
          <mxGeometry x="160" y="290" width="80" height="30" as="geometry" />
        </mxCell>
        <mxCell id="GrwJYSLe0EC1OyHtpW1D-9" value="" style="endArrow=classic;html=1;rounded=0;entryX=-0.039;entryY=0.429;entryDx=0;entryDy=0;entryPerimeter=0;exitX=1.005;exitY=0.431;exitDx=0;exitDy=0;exitPerimeter=0;" edge="1" parent="1" source="Yx4M3br5tasr4qP-P989-3">
          <mxGeometry width="50" height="50" relative="1" as="geometry">
            <mxPoint x="450" y="240" as="sourcePoint" />
            <mxPoint x="576.88" y="134.31999999999994" as="targetPoint" />
          </mxGeometry>
        </mxCell>
        <mxCell id="GrwJYSLe0EC1OyHtpW1D-10" value="" style="endArrow=classic;html=1;rounded=0;entryX=1.005;entryY=0.594;entryDx=0;entryDy=0;entryPerimeter=0;exitX=-0.023;exitY=0.629;exitDx=0;exitDy=0;exitPerimeter=0;" edge="1" parent="1" target="Yx4M3br5tasr4qP-P989-3">
          <mxGeometry width="50" height="50" relative="1" as="geometry">
            <mxPoint x="578.1600000000001" y="150.31999999999994" as="sourcePoint" />
            <mxPoint x="490" y="190" as="targetPoint" />
          </mxGeometry>
        </mxCell>
        <mxCell id="GrwJYSLe0EC1OyHtpW1D-11" value="Data Siswa" style="text;html=1;align=center;verticalAlign=middle;whiteSpace=wrap;rounded=0;" vertex="1" parent="1">
          <mxGeometry x="440" y="110" width="80" height="30" as="geometry" />
        </mxCell>
        <mxCell id="GrwJYSLe0EC1OyHtpW1D-12" value="Formulir" style="text;html=1;align=center;verticalAlign=middle;whiteSpace=wrap;rounded=0;" vertex="1" parent="1">
          <mxGeometry x="450" y="150" width="60" height="30" as="geometry" />
        </mxCell>
        <mxCell id="GrwJYSLe0EC1OyHtpW1D-13" value="Bank" style="rounded=0;whiteSpace=wrap;html=1;" vertex="1" parent="1">
          <mxGeometry x="580" y="110" width="120" height="60" as="geometry" />
        </mxCell>
        <mxCell id="GrwJYSLe0EC1OyHtpW1D-14" value="" style="endArrow=classic;html=1;rounded=0;entryX=0.5;entryY=0;entryDx=0;entryDy=0;exitX=0.5;exitY=1;exitDx=0;exitDy=0;" edge="1" parent="1" source="GrwJYSLe0EC1OyHtpW1D-2" target="UNekgtml4kyOxIxgV8N4-1">
          <mxGeometry width="50" height="50" relative="1" as="geometry">
            <mxPoint x="330" y="300" as="sourcePoint" />
            <mxPoint x="380" y="250" as="targetPoint" />
          </mxGeometry>
        </mxCell>
        <mxCell id="GrwJYSLe0EC1OyHtpW1D-15" value="Data Hasil Test" style="text;html=1;align=center;verticalAlign=middle;whiteSpace=wrap;rounded=0;" vertex="1" parent="1">
          <mxGeometry x="270" y="390" width="90" height="30" as="geometry" />
        </mxCell>
        <mxCell id="GrwJYSLe0EC1OyHtpW1D-16" value="Pembuatan Laporan" style="ellipse;whiteSpace=wrap;html=1;aspect=fixed;" vertex="1" parent="1">
          <mxGeometry x="304" y="620" width="110" height="110" as="geometry" />
        </mxCell>
        <mxCell id="GrwJYSLe0EC1OyHtpW1D-17" value="" style="endArrow=classic;html=1;rounded=0;entryX=0.5;entryY=0;entryDx=0;entryDy=0;exitX=0.5;exitY=1;exitDx=0;exitDy=0;" edge="1" parent="1" source="UNekgtml4kyOxIxgV8N4-1" target="GrwJYSLe0EC1OyHtpW1D-16">
          <mxGeometry width="50" height="50" relative="1" as="geometry">
            <mxPoint x="330" y="630" as="sourcePoint" />
            <mxPoint x="380" y="580" as="targetPoint" />
          </mxGeometry>
        </mxCell>
        <mxCell id="GrwJYSLe0EC1OyHtpW1D-18" value="Data Pembayaran" style="text;html=1;align=center;verticalAlign=middle;whiteSpace=wrap;rounded=0;" vertex="1" parent="1">
          <mxGeometry x="290" y="580" width="60" height="30" as="geometry" />
        </mxCell>
        <mxCell id="GrwJYSLe0EC1OyHtpW1D-19" value="" style="endArrow=classic;html=1;rounded=0;exitX=0.014;exitY=0.449;exitDx=0;exitDy=0;exitPerimeter=0;" edge="1" parent="1" source="GrwJYSLe0EC1OyHtpW1D-16">
          <mxGeometry width="50" height="50" relative="1" as="geometry">
            <mxPoint x="170" y="690" as="sourcePoint" />
            <mxPoint x="160" y="760" as="targetPoint" />
            <Array as="points">
              <mxPoint x="160" y="670" />
            </Array>
          </mxGeometry>
        </mxCell>
        <mxCell id="GrwJYSLe0EC1OyHtpW1D-21" value="Lap Data Pendaftaran&lt;div&gt;Lap Data Siswa&lt;/div&gt;&lt;div style=&quot;&quot;&gt;Lap Data Pembayaran&lt;/div&gt;" style="text;html=1;align=left;verticalAlign=middle;whiteSpace=wrap;rounded=0;" vertex="1" parent="1">
          <mxGeometry x="170" y="690" width="140" height="30" as="geometry" />
        </mxCell>
        <mxCell id="GrwJYSLe0EC1OyHtpW1D-22" value="Kepala Sekolah" style="rounded=0;whiteSpace=wrap;html=1;" vertex="1" parent="1">
          <mxGeometry x="100" y="760" width="120" height="60" as="geometry" />
        </mxCell>
        <mxCell id="GrwJYSLe0EC1OyHtpW1D-23" value="" style="endArrow=classic;html=1;rounded=0;exitX=0.5;exitY=1;exitDx=0;exitDy=0;" edge="1" parent="1" source="GrwJYSLe0EC1OyHtpW1D-16" target="GrwJYSLe0EC1OyHtpW1D-24">
          <mxGeometry width="50" height="50" relative="1" as="geometry">
            <mxPoint x="350" y="730" as="sourcePoint" />
            <mxPoint x="480" y="780" as="targetPoint" />
            <Array as="points">
              <mxPoint x="360" y="780" />
            </Array>
          </mxGeometry>
        </mxCell>
        <mxCell id="GrwJYSLe0EC1OyHtpW1D-24" value="Ketua Yayasan" style="rounded=0;whiteSpace=wrap;html=1;" vertex="1" parent="1">
          <mxGeometry x="520" y="750" width="120" height="60" as="geometry" />
        </mxCell>
        <mxCell id="GrwJYSLe0EC1OyHtpW1D-25" value="Lap Data Pendaftaran&lt;div&gt;Lap Data Siswa&lt;/div&gt;&lt;div&gt;Lap Data Pembayaran&lt;/div&gt;" style="text;html=1;align=left;verticalAlign=middle;whiteSpace=wrap;rounded=0;" vertex="1" parent="1">
          <mxGeometry x="420" y="710" width="140" height="30" as="geometry" />
        </mxCell>
      </root>
    </mxGraphModel>
  </diagram>
  <diagram id="FU1I57XzDAIkbhMXHkdw" name="ERD">
    <mxGraphModel grid="1" page="1" gridSize="10" guides="1" tooltips="1" connect="1" arrows="1" fold="1" pageScale="1" pageWidth="827" pageHeight="1169" math="0" shadow="0">
      <root>
        <mxCell id="0" />
        <mxCell id="1" parent="0" />
        <mxCell id="r1V7cIWEtcq-eFXyV0O8-1" value="siswa" style="rounded=0;whiteSpace=wrap;html=1;" vertex="1" parent="1">
          <mxGeometry x="150" y="320" width="120" height="60" as="geometry" />
        </mxCell>
        <mxCell id="r1V7cIWEtcq-eFXyV0O8-2" value="Kursus" style="rounded=0;whiteSpace=wrap;html=1;" vertex="1" parent="1">
          <mxGeometry x="550" y="320" width="120" height="60" as="geometry" />
        </mxCell>
        <mxCell id="r1V7cIWEtcq-eFXyV0O8-3" value="Pembayaran" style="ellipse;whiteSpace=wrap;html=1;" vertex="1" parent="1">
          <mxGeometry x="550" y="180" width="120" height="80" as="geometry" />
        </mxCell>
        <mxCell id="r1V7cIWEtcq-eFXyV0O8-4" value="Jadwal" style="ellipse;whiteSpace=wrap;html=1;" vertex="1" parent="1">
          <mxGeometry x="550" y="440" width="120" height="80" as="geometry" />
        </mxCell>
        <mxCell id="r1V7cIWEtcq-eFXyV0O8-5" value="Mendaftar" style="rhombus;whiteSpace=wrap;html=1;" vertex="1" parent="1">
          <mxGeometry x="350" y="320" width="150" height="80" as="geometry" />
        </mxCell>
        <mxCell id="r1V7cIWEtcq-eFXyV0O8-6" value="Id Siswa" style="ellipse;whiteSpace=wrap;html=1;" vertex="1" parent="1">
          <mxGeometry x="180" y="450" width="120" height="80" as="geometry" />
        </mxCell>
        <mxCell id="r1V7cIWEtcq-eFXyV0O8-7" value="Nama" style="ellipse;whiteSpace=wrap;html=1;" vertex="1" parent="1">
          <mxGeometry x="30" y="400" width="120" height="80" as="geometry" />
        </mxCell>
        <mxCell id="r1V7cIWEtcq-eFXyV0O8-8" value="Email" style="ellipse;whiteSpace=wrap;html=1;" vertex="1" parent="1">
          <mxGeometry x="10" y="220" width="120" height="80" as="geometry" />
        </mxCell>
        <mxCell id="r1V7cIWEtcq-eFXyV0O8-9" value="No HP" style="ellipse;whiteSpace=wrap;html=1;" vertex="1" parent="1">
          <mxGeometry x="110" y="120" width="120" height="80" as="geometry" />
        </mxCell>
        <mxCell id="r1V7cIWEtcq-eFXyV0O8-10" value="Alamat" style="ellipse;whiteSpace=wrap;html=1;" vertex="1" parent="1">
          <mxGeometry x="230" y="200" width="120" height="80" as="geometry" />
        </mxCell>
        <mxCell id="r1V7cIWEtcq-eFXyV0O8-11" value="" style="endArrow=none;html=1;rounded=0;entryX=0.5;entryY=1;entryDx=0;entryDy=0;exitX=0.975;exitY=0.395;exitDx=0;exitDy=0;exitPerimeter=0;" edge="1" parent="1" source="r1V7cIWEtcq-eFXyV0O8-7" target="r1V7cIWEtcq-eFXyV0O8-1">
          <mxGeometry width="50" height="50" relative="1" as="geometry">
            <mxPoint x="170" y="440" as="sourcePoint" />
            <mxPoint x="220" y="390" as="targetPoint" />
          </mxGeometry>
        </mxCell>
        <mxCell id="r1V7cIWEtcq-eFXyV0O8-12" value="" style="endArrow=none;html=1;rounded=0;entryX=0.5;entryY=1;entryDx=0;entryDy=0;exitX=0.426;exitY=-0.013;exitDx=0;exitDy=0;exitPerimeter=0;" edge="1" parent="1" source="r1V7cIWEtcq-eFXyV0O8-6" target="r1V7cIWEtcq-eFXyV0O8-1">
          <mxGeometry width="50" height="50" relative="1" as="geometry">
            <mxPoint x="180" y="430" as="sourcePoint" />
            <mxPoint x="230" y="380" as="targetPoint" />
          </mxGeometry>
        </mxCell>
        <mxCell id="r1V7cIWEtcq-eFXyV0O8-13" value="" style="endArrow=none;html=1;rounded=0;entryX=0.5;entryY=0;entryDx=0;entryDy=0;exitX=0.886;exitY=0.775;exitDx=0;exitDy=0;exitPerimeter=0;" edge="1" parent="1" source="r1V7cIWEtcq-eFXyV0O8-8" target="r1V7cIWEtcq-eFXyV0O8-1">
          <mxGeometry width="50" height="50" relative="1" as="geometry">
            <mxPoint x="180" y="430" as="sourcePoint" />
            <mxPoint x="230" y="380" as="targetPoint" />
          </mxGeometry>
        </mxCell>
        <mxCell id="r1V7cIWEtcq-eFXyV0O8-14" value="" style="endArrow=none;html=1;rounded=0;entryX=0.5;entryY=0;entryDx=0;entryDy=0;exitX=0.586;exitY=0.982;exitDx=0;exitDy=0;exitPerimeter=0;" edge="1" parent="1" source="r1V7cIWEtcq-eFXyV0O8-9" target="r1V7cIWEtcq-eFXyV0O8-1">
          <mxGeometry width="50" height="50" relative="1" as="geometry">
            <mxPoint x="180" y="430" as="sourcePoint" />
            <mxPoint x="230" y="380" as="targetPoint" />
          </mxGeometry>
        </mxCell>
        <mxCell id="r1V7cIWEtcq-eFXyV0O8-15" value="" style="endArrow=none;html=1;rounded=0;entryX=0.5;entryY=0;entryDx=0;entryDy=0;exitX=0.311;exitY=0.964;exitDx=0;exitDy=0;exitPerimeter=0;" edge="1" parent="1" source="r1V7cIWEtcq-eFXyV0O8-10" target="r1V7cIWEtcq-eFXyV0O8-1">
          <mxGeometry width="50" height="50" relative="1" as="geometry">
            <mxPoint x="180" y="430" as="sourcePoint" />
            <mxPoint x="230" y="380" as="targetPoint" />
          </mxGeometry>
        </mxCell>
        <mxCell id="r1V7cIWEtcq-eFXyV0O8-16" value="" style="endArrow=none;html=1;rounded=0;entryX=0;entryY=0.5;entryDx=0;entryDy=0;exitX=1.007;exitY=0.63;exitDx=0;exitDy=0;exitPerimeter=0;" edge="1" parent="1" source="r1V7cIWEtcq-eFXyV0O8-1" target="r1V7cIWEtcq-eFXyV0O8-5">
          <mxGeometry width="50" height="50" relative="1" as="geometry">
            <mxPoint x="340" y="430" as="sourcePoint" />
            <mxPoint x="390" y="380" as="targetPoint" />
          </mxGeometry>
        </mxCell>
        <mxCell id="r1V7cIWEtcq-eFXyV0O8-17" value="" style="endArrow=none;html=1;rounded=0;entryX=0.005;entryY=0.619;entryDx=0;entryDy=0;entryPerimeter=0;exitX=1;exitY=0.5;exitDx=0;exitDy=0;" edge="1" parent="1" source="r1V7cIWEtcq-eFXyV0O8-5" target="r1V7cIWEtcq-eFXyV0O8-2">
          <mxGeometry width="50" height="50" relative="1" as="geometry">
            <mxPoint x="540" y="400" as="sourcePoint" />
            <mxPoint x="590" y="350" as="targetPoint" />
          </mxGeometry>
        </mxCell>
        <mxCell id="r1V7cIWEtcq-eFXyV0O8-18" value="" style="endArrow=none;html=1;rounded=0;entryX=0.5;entryY=1;entryDx=0;entryDy=0;exitX=0.5;exitY=0;exitDx=0;exitDy=0;" edge="1" parent="1" source="r1V7cIWEtcq-eFXyV0O8-4" target="r1V7cIWEtcq-eFXyV0O8-2">
          <mxGeometry width="50" height="50" relative="1" as="geometry">
            <mxPoint x="520" y="400" as="sourcePoint" />
            <mxPoint x="570" y="350" as="targetPoint" />
          </mxGeometry>
        </mxCell>
        <mxCell id="r1V7cIWEtcq-eFXyV0O8-19" value="" style="endArrow=none;html=1;rounded=0;entryX=0.5;entryY=0;entryDx=0;entryDy=0;" edge="1" parent="1" source="r1V7cIWEtcq-eFXyV0O8-3" target="r1V7cIWEtcq-eFXyV0O8-2">
          <mxGeometry width="50" height="50" relative="1" as="geometry">
            <mxPoint x="520" y="400" as="sourcePoint" />
            <mxPoint x="570" y="350" as="targetPoint" />
          </mxGeometry>
        </mxCell>
        <mxCell id="RXl99iQwPt_Q6VwV72Yp-1" value="Subjek" style="ellipse;whiteSpace=wrap;html=1;" vertex="1" parent="1">
          <mxGeometry x="687" y="250" width="120" height="80" as="geometry" />
        </mxCell>
        <mxCell id="RXl99iQwPt_Q6VwV72Yp-2" value="Nama Ppengajar" style="ellipse;whiteSpace=wrap;html=1;" vertex="1" parent="1">
          <mxGeometry x="687" y="340" width="120" height="80" as="geometry" />
        </mxCell>
        <mxCell id="RXl99iQwPt_Q6VwV72Yp-3" value="Kode Subjek kursus" style="ellipse;whiteSpace=wrap;html=1;" vertex="1" parent="1">
          <mxGeometry x="687" y="430" width="120" height="80" as="geometry" />
        </mxCell>
        <mxCell id="RXl99iQwPt_Q6VwV72Yp-4" value="" style="endArrow=none;html=1;rounded=0;exitX=0.75;exitY=1;exitDx=0;exitDy=0;" edge="1" parent="1" source="r1V7cIWEtcq-eFXyV0O8-2" target="RXl99iQwPt_Q6VwV72Yp-3">
          <mxGeometry width="50" height="50" relative="1" as="geometry">
            <mxPoint x="640" y="370" as="sourcePoint" />
            <mxPoint x="690" y="320" as="targetPoint" />
          </mxGeometry>
        </mxCell>
        <mxCell id="RXl99iQwPt_Q6VwV72Yp-5" value="" style="endArrow=none;html=1;rounded=0;exitX=1;exitY=0.5;exitDx=0;exitDy=0;" edge="1" parent="1" source="r1V7cIWEtcq-eFXyV0O8-2" target="RXl99iQwPt_Q6VwV72Yp-2">
          <mxGeometry width="50" height="50" relative="1" as="geometry">
            <mxPoint x="640" y="370" as="sourcePoint" />
            <mxPoint x="690" y="320" as="targetPoint" />
          </mxGeometry>
        </mxCell>
        <mxCell id="RXl99iQwPt_Q6VwV72Yp-6" value="" style="endArrow=none;html=1;rounded=0;entryX=0.007;entryY=0.67;entryDx=0;entryDy=0;entryPerimeter=0;exitX=1;exitY=0;exitDx=0;exitDy=0;" edge="1" parent="1" source="r1V7cIWEtcq-eFXyV0O8-2" target="RXl99iQwPt_Q6VwV72Yp-1">
          <mxGeometry width="50" height="50" relative="1" as="geometry">
            <mxPoint x="640" y="370" as="sourcePoint" />
            <mxPoint x="690" y="320" as="targetPoint" />
          </mxGeometry>
        </mxCell>
      </root>
    </mxGraphModel>
  </diagram>
  <diagram id="Eouio1ybEDS63vtnrNIj" name="UML Use Case Diagram">
    <mxGraphModel grid="1" page="1" gridSize="10" guides="1" tooltips="1" connect="1" arrows="1" fold="1" pageScale="1" pageWidth="827" pageHeight="1169" math="0" shadow="0">
      <root>
        <mxCell id="0" />
        <mxCell id="1" parent="0" />
        <mxCell id="AMCyyliOSySvHlmuonOV-1" value="Siswa&lt;div&gt;&lt;br&gt;&lt;/div&gt;" style="shape=umlActor;html=1;verticalLabelPosition=bottom;verticalAlign=top;align=center;" vertex="1" parent="1">
          <mxGeometry x="40" y="370" width="30" height="60" as="geometry" />
        </mxCell>
        <mxCell id="AMCyyliOSySvHlmuonOV-2" value="Admin" style="shape=umlActor;html=1;verticalLabelPosition=bottom;verticalAlign=top;align=center;" vertex="1" parent="1">
          <mxGeometry x="414" y="330" width="30" height="60" as="geometry" />
        </mxCell>
        <mxCell id="AMCyyliOSySvHlmuonOV-3" value="Registrasi Akun" style="ellipse;whiteSpace=wrap;html=1;" vertex="1" parent="1">
          <mxGeometry x="210" y="220" width="120" height="80" as="geometry" />
        </mxCell>
        <mxCell id="AMCyyliOSySvHlmuonOV-4" value="Mendaftar Kursus" style="ellipse;whiteSpace=wrap;html=1;" vertex="1" parent="1">
          <mxGeometry x="210" y="120" width="120" height="80" as="geometry" />
        </mxCell>
        <mxCell id="AMCyyliOSySvHlmuonOV-5" value="Melakukan Pembayaran" style="ellipse;whiteSpace=wrap;html=1;" vertex="1" parent="1">
          <mxGeometry x="210" y="20" width="120" height="80" as="geometry" />
        </mxCell>
        <mxCell id="AMCyyliOSySvHlmuonOV-6" value="Mengelola Kursus" style="ellipse;whiteSpace=wrap;html=1;direction=east;" vertex="1" parent="1">
          <mxGeometry x="584" y="220" width="120" height="80" as="geometry" />
        </mxCell>
        <mxCell id="AMCyyliOSySvHlmuonOV-7" value="Mengelola Pembayaran" style="ellipse;whiteSpace=wrap;html=1;" vertex="1" parent="1">
          <mxGeometry x="584" y="320" width="120" height="80" as="geometry" />
        </mxCell>
        <mxCell id="AMCyyliOSySvHlmuonOV-8" value="Mengelola Jadwal" style="ellipse;whiteSpace=wrap;html=1;direction=east;" vertex="1" parent="1">
          <mxGeometry x="584" y="424.5" width="120" height="80" as="geometry" />
        </mxCell>
        <mxCell id="AMCyyliOSySvHlmuonOV-11" value="" style="endArrow=none;html=1;rounded=0;entryX=0;entryY=0.5;entryDx=0;entryDy=0;" edge="1" parent="1" target="AMCyyliOSySvHlmuonOV-6">
          <mxGeometry width="50" height="50" relative="1" as="geometry">
            <mxPoint x="464" y="370" as="sourcePoint" />
            <mxPoint x="544" y="260" as="targetPoint" />
          </mxGeometry>
        </mxCell>
        <mxCell id="AMCyyliOSySvHlmuonOV-12" value="" style="endArrow=none;html=1;rounded=0;entryX=0;entryY=0.5;entryDx=0;entryDy=0;" edge="1" parent="1" target="AMCyyliOSySvHlmuonOV-7">
          <mxGeometry width="50" height="50" relative="1" as="geometry">
            <mxPoint x="464" y="370" as="sourcePoint" />
            <mxPoint x="544" y="260" as="targetPoint" />
          </mxGeometry>
        </mxCell>
        <mxCell id="AMCyyliOSySvHlmuonOV-13" value="" style="endArrow=none;html=1;rounded=0;entryX=0;entryY=0.5;entryDx=0;entryDy=0;" edge="1" parent="1" target="AMCyyliOSySvHlmuonOV-8">
          <mxGeometry width="50" height="50" relative="1" as="geometry">
            <mxPoint x="464" y="370" as="sourcePoint" />
            <mxPoint x="544" y="260" as="targetPoint" />
          </mxGeometry>
        </mxCell>
        <mxCell id="AMCyyliOSySvHlmuonOV-14" value="" style="endArrow=none;html=1;rounded=0;entryX=0;entryY=0.5;entryDx=0;entryDy=0;" edge="1" parent="1" target="AMCyyliOSySvHlmuonOV-3">
          <mxGeometry width="50" height="50" relative="1" as="geometry">
            <mxPoint x="90" y="400" as="sourcePoint" />
            <mxPoint x="170" y="420" as="targetPoint" />
          </mxGeometry>
        </mxCell>
        <mxCell id="AMCyyliOSySvHlmuonOV-15" value="" style="endArrow=none;html=1;rounded=0;entryX=0;entryY=0.5;entryDx=0;entryDy=0;" edge="1" parent="1" target="AMCyyliOSySvHlmuonOV-4">
          <mxGeometry width="50" height="50" relative="1" as="geometry">
            <mxPoint x="90" y="400" as="sourcePoint" />
            <mxPoint x="170" y="420" as="targetPoint" />
          </mxGeometry>
        </mxCell>
        <mxCell id="AMCyyliOSySvHlmuonOV-16" value="" style="endArrow=none;html=1;rounded=0;entryX=0;entryY=0.5;entryDx=0;entryDy=0;" edge="1" parent="1" target="AMCyyliOSySvHlmuonOV-5">
          <mxGeometry width="50" height="50" relative="1" as="geometry">
            <mxPoint x="90" y="400" as="sourcePoint" />
            <mxPoint x="170" y="420" as="targetPoint" />
          </mxGeometry>
        </mxCell>
        <mxCell id="N5-JRrWcRVLVPqtilXaD-1" value="Melakukan Test" style="ellipse;whiteSpace=wrap;html=1;" vertex="1" parent="1">
          <mxGeometry x="210" y="320" width="120" height="80" as="geometry" />
        </mxCell>
        <mxCell id="N5-JRrWcRVLVPqtilXaD-2" value="Mengisi Data" style="ellipse;whiteSpace=wrap;html=1;" vertex="1" parent="1">
          <mxGeometry x="210" y="410" width="120" height="80" as="geometry" />
        </mxCell>
        <mxCell id="N5-JRrWcRVLVPqtilXaD-3" value="Memberikan Hasil Tes" style="ellipse;whiteSpace=wrap;html=1;" vertex="1" parent="1">
          <mxGeometry x="210" y="504.5" width="120" height="80" as="geometry" />
        </mxCell>
        <mxCell id="N5-JRrWcRVLVPqtilXaD-4" value="Login" style="ellipse;whiteSpace=wrap;html=1;" vertex="1" parent="1">
          <mxGeometry x="210" y="590" width="120" height="80" as="geometry" />
        </mxCell>
        <mxCell id="N5-JRrWcRVLVPqtilXaD-5" value="" style="endArrow=none;html=1;rounded=0;entryX=0;entryY=0.5;entryDx=0;entryDy=0;" edge="1" parent="1" target="N5-JRrWcRVLVPqtilXaD-1">
          <mxGeometry width="50" height="50" relative="1" as="geometry">
            <mxPoint x="90" y="400" as="sourcePoint" />
            <mxPoint x="230" y="440" as="targetPoint" />
          </mxGeometry>
        </mxCell>
        <mxCell id="N5-JRrWcRVLVPqtilXaD-6" value="" style="endArrow=none;html=1;rounded=0;entryX=0;entryY=0.5;entryDx=0;entryDy=0;" edge="1" parent="1" target="N5-JRrWcRVLVPqtilXaD-2">
          <mxGeometry width="50" height="50" relative="1" as="geometry">
            <mxPoint x="90" y="400" as="sourcePoint" />
            <mxPoint x="190" y="420" as="targetPoint" />
          </mxGeometry>
        </mxCell>
        <mxCell id="N5-JRrWcRVLVPqtilXaD-7" value="" style="endArrow=none;html=1;rounded=0;entryX=0;entryY=0.5;entryDx=0;entryDy=0;" edge="1" parent="1" target="N5-JRrWcRVLVPqtilXaD-3">
          <mxGeometry width="50" height="50" relative="1" as="geometry">
            <mxPoint x="90" y="400" as="sourcePoint" />
            <mxPoint x="190" y="420" as="targetPoint" />
          </mxGeometry>
        </mxCell>
        <mxCell id="N5-JRrWcRVLVPqtilXaD-8" value="" style="endArrow=none;html=1;rounded=0;entryX=0;entryY=0.5;entryDx=0;entryDy=0;" edge="1" parent="1" target="N5-JRrWcRVLVPqtilXaD-4">
          <mxGeometry width="50" height="50" relative="1" as="geometry">
            <mxPoint x="90" y="400" as="sourcePoint" />
            <mxPoint x="190" y="420" as="targetPoint" />
          </mxGeometry>
        </mxCell>
      </root>
    </mxGraphModel>
  </diagram>
  <diagram id="hw_I7XF5nArmBfkuPWR-" name="Halaman-4">
    <mxGraphModel grid="1" page="1" gridSize="10" guides="1" tooltips="1" connect="1" arrows="1" fold="1" pageScale="1" pageWidth="827" pageHeight="1169" math="0" shadow="0">
      <root>
        <mxCell id="0" />
        <mxCell id="1" parent="0" />
        <mxCell id="MyS-zb57bY_hsiFJv0L8-6" value="" style="endArrow=none;html=1;rounded=0;entryX=0.5;entryY=1;entryDx=0;entryDy=0;exitX=0.5;exitY=0;exitDx=0;exitDy=0;" edge="1" parent="1" source="MyS-zb57bY_hsiFJv0L8-5" target="MyS-zb57bY_hsiFJv0L8-1">
          <mxGeometry width="50" height="50" relative="1" as="geometry">
            <mxPoint x="130" y="300" as="sourcePoint" />
            <mxPoint x="180" y="250" as="targetPoint" />
          </mxGeometry>
        </mxCell>
        <mxCell id="MyS-zb57bY_hsiFJv0L8-1" value="Mulai" style="rounded=0;whiteSpace=wrap;html=1;" vertex="1" parent="1">
          <mxGeometry x="110" y="70" width="120" height="60" as="geometry" />
        </mxCell>
        <mxCell id="MyS-zb57bY_hsiFJv0L8-2" value="Calon Siswa melakukan Pendaftaran" style="rounded=0;whiteSpace=wrap;html=1;" vertex="1" parent="1">
          <mxGeometry x="110" y="160" width="120" height="60" as="geometry" />
        </mxCell>
        <mxCell id="MyS-zb57bY_hsiFJv0L8-3" value="Calon Siswa menyerahkan berkas" style="rounded=0;whiteSpace=wrap;html=1;" vertex="1" parent="1">
          <mxGeometry x="110" y="240" width="120" height="60" as="geometry" />
        </mxCell>
        <mxCell id="MyS-zb57bY_hsiFJv0L8-4" value="Admin menerima Berkas" style="rounded=0;whiteSpace=wrap;html=1;" vertex="1" parent="1">
          <mxGeometry x="110" y="320" width="120" height="60" as="geometry" />
        </mxCell>
        <mxCell id="MyS-zb57bY_hsiFJv0L8-5" value="Admin memeriksa berkas" style="rounded=0;whiteSpace=wrap;html=1;" vertex="1" parent="1">
          <mxGeometry x="110" y="410" width="120" height="60" as="geometry" />
        </mxCell>
        <mxCell id="MyS-zb57bY_hsiFJv0L8-7" value="Apakah Berkas memenuhi&amp;nbsp;&lt;div&gt;syarat&lt;/div&gt;" style="rhombus;whiteSpace=wrap;html=1;" vertex="1" parent="1">
          <mxGeometry x="80" y="490" width="180" height="100" as="geometry" />
        </mxCell>
        <mxCell id="MyS-zb57bY_hsiFJv0L8-8" value="Kembalikan Berkas" style="rounded=0;whiteSpace=wrap;html=1;" vertex="1" parent="1">
          <mxGeometry x="-90" y="570" width="120" height="60" as="geometry" />
        </mxCell>
        <mxCell id="MyS-zb57bY_hsiFJv0L8-10" value="Admin menyerahkan Formulir" style="rounded=0;whiteSpace=wrap;html=1;" vertex="1" parent="1">
          <mxGeometry x="310" y="700" width="120" height="60" as="geometry" />
        </mxCell>
        <mxCell id="MyS-zb57bY_hsiFJv0L8-11" value="" style="endArrow=classic;html=1;rounded=0;entryX=0.5;entryY=0;entryDx=0;entryDy=0;exitX=1;exitY=0.5;exitDx=0;exitDy=0;" edge="1" parent="1" source="MyS-zb57bY_hsiFJv0L8-7" target="MyS-zb57bY_hsiFJv0L8-10">
          <mxGeometry width="50" height="50" relative="1" as="geometry">
            <mxPoint x="270" y="540" as="sourcePoint" />
            <mxPoint x="390" y="460" as="targetPoint" />
            <Array as="points">
              <mxPoint x="370" y="540" />
            </Array>
          </mxGeometry>
        </mxCell>
        <mxCell id="MyS-zb57bY_hsiFJv0L8-12" value="Iya" style="text;html=1;align=center;verticalAlign=middle;whiteSpace=wrap;rounded=0;" vertex="1" parent="1">
          <mxGeometry x="290" y="510" width="60" height="30" as="geometry" />
        </mxCell>
        <mxCell id="MyS-zb57bY_hsiFJv0L8-13" value="" style="endArrow=classic;html=1;rounded=0;entryX=0.423;entryY=0.057;entryDx=0;entryDy=0;entryPerimeter=0;exitX=0;exitY=0.5;exitDx=0;exitDy=0;" edge="1" parent="1" source="MyS-zb57bY_hsiFJv0L8-7" target="MyS-zb57bY_hsiFJv0L8-8">
          <mxGeometry width="50" height="50" relative="1" as="geometry">
            <mxPoint x="70" y="540" as="sourcePoint" />
            <mxPoint x="70" y="460" as="targetPoint" />
            <Array as="points">
              <mxPoint x="-39" y="540" />
            </Array>
          </mxGeometry>
        </mxCell>
        <mxCell id="MyS-zb57bY_hsiFJv0L8-14" value="Tidak" style="text;html=1;align=center;verticalAlign=middle;whiteSpace=wrap;rounded=0;" vertex="1" parent="1">
          <mxGeometry x="-20" y="510" width="60" height="30" as="geometry" />
        </mxCell>
        <mxCell id="MyS-zb57bY_hsiFJv0L8-15" value="" style="endArrow=classic;html=1;rounded=0;exitX=0;exitY=0.5;exitDx=0;exitDy=0;" edge="1" parent="1" source="MyS-zb57bY_hsiFJv0L8-10" target="MyS-zb57bY_hsiFJv0L8-16">
          <mxGeometry width="50" height="50" relative="1" as="geometry">
            <mxPoint x="180" y="680" as="sourcePoint" />
            <mxPoint x="150" y="730" as="targetPoint" />
          </mxGeometry>
        </mxCell>
        <mxCell id="MyS-zb57bY_hsiFJv0L8-16" value="Siswa diberikan formulir" style="rounded=0;whiteSpace=wrap;html=1;" vertex="1" parent="1">
          <mxGeometry x="30" y="700" width="120" height="60" as="geometry" />
        </mxCell>
        <mxCell id="MyS-zb57bY_hsiFJv0L8-17" value="" style="endArrow=classic;html=1;rounded=0;exitX=0.42;exitY=1.022;exitDx=0;exitDy=0;exitPerimeter=0;" edge="1" parent="1" source="MyS-zb57bY_hsiFJv0L8-16" target="MyS-zb57bY_hsiFJv0L8-18">
          <mxGeometry width="50" height="50" relative="1" as="geometry">
            <mxPoint x="80" y="760" as="sourcePoint" />
            <mxPoint x="80" y="800" as="targetPoint" />
          </mxGeometry>
        </mxCell>
        <mxCell id="MyS-zb57bY_hsiFJv0L8-18" value="Siswa mengisi formulir" style="rounded=0;whiteSpace=wrap;html=1;" vertex="1" parent="1">
          <mxGeometry x="20" y="790" width="120" height="60" as="geometry" />
        </mxCell>
        <mxCell id="MyS-zb57bY_hsiFJv0L8-19" value="" style="endArrow=classic;html=1;rounded=0;exitX=0.5;exitY=1;exitDx=0;exitDy=0;" edge="1" parent="1" source="MyS-zb57bY_hsiFJv0L8-18" target="MyS-zb57bY_hsiFJv0L8-20">
          <mxGeometry width="50" height="50" relative="1" as="geometry">
            <mxPoint x="30" y="930" as="sourcePoint" />
            <mxPoint x="80" y="880" as="targetPoint" />
          </mxGeometry>
        </mxCell>
        <mxCell id="MyS-zb57bY_hsiFJv0L8-20" value="Siswa menyerahkan formulir" style="rounded=0;whiteSpace=wrap;html=1;" vertex="1" parent="1">
          <mxGeometry x="20" y="880" width="120" height="60" as="geometry" />
        </mxCell>
        <mxCell id="MyS-zb57bY_hsiFJv0L8-21" value="" style="endArrow=classic;html=1;rounded=0;exitX=1;exitY=0.5;exitDx=0;exitDy=0;" edge="1" parent="1" source="MyS-zb57bY_hsiFJv0L8-20" target="MyS-zb57bY_hsiFJv0L8-22">
          <mxGeometry width="50" height="50" relative="1" as="geometry">
            <mxPoint x="220" y="930" as="sourcePoint" />
            <mxPoint x="280" y="910" as="targetPoint" />
          </mxGeometry>
        </mxCell>
        <mxCell id="MyS-zb57bY_hsiFJv0L8-22" value="Admin menerima Formulir" style="rounded=0;whiteSpace=wrap;html=1;" vertex="1" parent="1">
          <mxGeometry x="280" y="880" width="120" height="60" as="geometry" />
        </mxCell>
        <mxCell id="MyS-zb57bY_hsiFJv0L8-23" value="" style="endArrow=classic;html=1;rounded=0;exitX=0.5;exitY=1;exitDx=0;exitDy=0;" edge="1" parent="1" source="MyS-zb57bY_hsiFJv0L8-22" target="MyS-zb57bY_hsiFJv0L8-24">
          <mxGeometry width="50" height="50" relative="1" as="geometry">
            <mxPoint x="220" y="930" as="sourcePoint" />
            <mxPoint x="340" y="960" as="targetPoint" />
          </mxGeometry>
        </mxCell>
        <mxCell id="MyS-zb57bY_hsiFJv0L8-24" value="Admin menyerahkan Bukti Pendaftaran" style="rounded=0;whiteSpace=wrap;html=1;" vertex="1" parent="1">
          <mxGeometry x="280" y="960" width="120" height="60" as="geometry" />
        </mxCell>
        <mxCell id="MyS-zb57bY_hsiFJv0L8-25" value="" style="endArrow=classic;html=1;rounded=0;exitX=0;exitY=0.5;exitDx=0;exitDy=0;" edge="1" parent="1" source="MyS-zb57bY_hsiFJv0L8-24" target="MyS-zb57bY_hsiFJv0L8-26">
          <mxGeometry width="50" height="50" relative="1" as="geometry">
            <mxPoint x="280" y="1000" as="sourcePoint" />
            <mxPoint x="220" y="1000" as="targetPoint" />
          </mxGeometry>
        </mxCell>
        <mxCell id="MyS-zb57bY_hsiFJv0L8-26" value="Siswa menerima bukti pendaftaran" style="rounded=0;whiteSpace=wrap;html=1;" vertex="1" parent="1">
          <mxGeometry x="130" y="960" width="120" height="60" as="geometry" />
        </mxCell>
        <mxCell id="MyS-zb57bY_hsiFJv0L8-27" value="" style="endArrow=none;html=1;rounded=0;entryX=0.5;entryY=1;entryDx=0;entryDy=0;" edge="1" parent="1" target="MyS-zb57bY_hsiFJv0L8-5">
          <mxGeometry width="50" height="50" relative="1" as="geometry">
            <mxPoint x="170" y="490" as="sourcePoint" />
            <mxPoint x="220" y="470" as="targetPoint" />
          </mxGeometry>
        </mxCell>
      </root>
    </mxGraphModel>
  </diagram>
  <diagram id="_rKPaQZEZ8j0lNoIBNW4" name="Halaman-5">
    <mxGraphModel grid="1" page="1" gridSize="10" guides="1" tooltips="1" connect="1" arrows="1" fold="1" pageScale="1" pageWidth="827" pageHeight="1169" math="0" shadow="0">
      <root>
        <mxCell id="0" />
        <mxCell id="1" parent="0" />
        <mxCell id="17qEcSQblot4AnmV-UdI-3" value="Siswa" style="swimlane;whiteSpace=wrap;html=1;" vertex="1" parent="1">
          <mxGeometry x="170" y="170" width="200" height="110" as="geometry" />
        </mxCell>
        <mxCell id="17qEcSQblot4AnmV-UdI-4" value="Nama Siswa&lt;div&gt;Email&lt;/div&gt;&lt;div&gt;Alamat&lt;/div&gt;&lt;div&gt;No HP&lt;/div&gt;&lt;div&gt;Id Siswa&lt;/div&gt;" style="text;html=1;align=left;verticalAlign=middle;resizable=0;points=[];autosize=1;strokeColor=none;fillColor=none;" vertex="1" parent="17qEcSQblot4AnmV-UdI-3">
          <mxGeometry x="10" y="20" width="90" height="90" as="geometry" />
        </mxCell>
        <mxCell id="NoJhpuzdvfgHLY54y_Mh-1" value="Kursus" style="swimlane;whiteSpace=wrap;html=1;" vertex="1" parent="1">
          <mxGeometry x="460" y="220" width="180" height="150" as="geometry" />
        </mxCell>
        <mxCell id="NoJhpuzdvfgHLY54y_Mh-2" value="Subjek&lt;div&gt;&lt;br&gt;&lt;div&gt;Nama Pengajar&lt;/div&gt;&lt;div&gt;&lt;br&gt;&lt;/div&gt;&lt;div&gt;Kode Subjek&lt;/div&gt;&lt;div&gt;&lt;br&gt;&lt;/div&gt;&lt;/div&gt;&lt;div&gt;Jadwal&lt;/div&gt;" style="text;html=1;align=left;verticalAlign=middle;whiteSpace=wrap;rounded=0;" vertex="1" parent="NoJhpuzdvfgHLY54y_Mh-1">
          <mxGeometry x="10" y="60" width="90" height="30" as="geometry" />
        </mxCell>
        <mxCell id="NoJhpuzdvfgHLY54y_Mh-5" value="" style="endArrow=classic;html=1;rounded=0;exitX=0.916;exitY=0.988;exitDx=0;exitDy=0;exitPerimeter=0;" edge="1" parent="1" source="17qEcSQblot4AnmV-UdI-4" target="NoJhpuzdvfgHLY54y_Mh-6">
          <mxGeometry width="50" height="50" relative="1" as="geometry">
            <mxPoint x="260" y="320" as="sourcePoint" />
            <mxPoint x="260" y="340" as="targetPoint" />
          </mxGeometry>
        </mxCell>
        <mxCell id="NoJhpuzdvfgHLY54y_Mh-6" value="Pembayaran" style="swimlane;whiteSpace=wrap;html=1;" vertex="1" parent="1">
          <mxGeometry x="190" y="310" width="140" height="90" as="geometry" />
        </mxCell>
        <mxCell id="NoJhpuzdvfgHLY54y_Mh-7" value="Jumlah Pembayaran" style="text;html=1;align=center;verticalAlign=middle;resizable=0;points=[];autosize=1;strokeColor=none;fillColor=none;" vertex="1" parent="NoJhpuzdvfgHLY54y_Mh-6">
          <mxGeometry x="5" y="38" width="130" height="30" as="geometry" />
        </mxCell>
        <mxCell id="NoJhpuzdvfgHLY54y_Mh-8" value="" style="endArrow=classic;html=1;rounded=0;exitX=1;exitY=0.5;exitDx=0;exitDy=0;entryX=0;entryY=0.5;entryDx=0;entryDy=0;" edge="1" parent="1" source="17qEcSQblot4AnmV-UdI-3" target="NoJhpuzdvfgHLY54y_Mh-1">
          <mxGeometry width="50" height="50" relative="1" as="geometry">
            <mxPoint x="490" y="260" as="sourcePoint" />
            <mxPoint x="540" y="210" as="targetPoint" />
          </mxGeometry>
        </mxCell>
      </root>
    </mxGraphModel>
  </diagram>
</mxfile>
